<?xml version="1.0" encoding="UTF-8"?>
<svg id="Capa_2" data-name="Capa 2" xmlns="http://www.w3.org/2000/svg" viewBox="0 0 202.42 204.57">
  <defs>
    <style>
      .cls-1 {
        fill: #fff;
      }

      .cls-2 {
        fill: none;
        stroke: #fff;
        stroke-miterlimit: 10;
      }
    </style>
  </defs>
  <g id="Capa_1-2" data-name="Capa 1">
    <g>
      <g>
        <path class="cls-1" d="m185.44,94.06c4.67,0,8.67,1.71,12,5.12,3.32,3.42,4.99,7.46,4.99,12.13,0,16.89-4.18,32.48-12.53,46.77-8.36,14.29-19.68,25.61-33.96,33.96-14.29,8.36-29.88,12.53-46.77,12.53h-5.39c-16.89,0-32.48-4.18-46.77-12.53-14.29-8.36-25.61-19.68-33.96-33.96-8.36-14.29-12.53-29.87-12.53-46.77v-7.55c0-16.89,4.18-32.48,12.53-46.77,8.36-14.29,19.68-25.61,33.96-33.96s29.87-12.53,46.77-12.53h5.39c14.02,0,27.22,2.97,39.62,8.9,12.4,5.93,22.91,14.02,31.54,24.26,3.05,3.6,4.22,7.64,3.5,12.13-.72,4.49-3.06,7.91-7.01,10.24-3.06,1.62-6.33,2.11-9.84,1.48-3.5-.63-6.43-2.38-8.76-5.26-6.11-7.19-13.57-12.85-22.37-16.98-8.81-4.13-18.15-6.2-28.03-6.2h-2.43c-18.33,0-34.01,6.47-47.04,19.41-13.03,12.94-19.54,28.57-19.54,46.9v4.31c0,18.33,6.51,34.01,19.54,47.04,13.03,13.03,28.71,19.54,47.04,19.54h2.43c15.99,0,30.1-5.12,42.32-15.36,12.22-10.24,19.77-23,22.64-38.28h-14.29c-3.95,0-7.32-1.39-10.11-4.18-2.79-2.78-4.18-6.15-4.18-10.11s1.39-7.32,4.18-10.11c2.78-2.78,6.15-4.18,10.11-4.18h26.96Z"/>
        <path class="cls-1" d="m184.44,93.06c4.67,0,8.67,1.71,12,5.12,3.32,3.42,4.99,7.46,4.99,12.13,0,16.89-4.18,32.48-12.53,46.77-8.36,14.29-19.68,25.61-33.96,33.96-14.29,8.36-29.88,12.53-46.77,12.53h-5.39c-16.89,0-32.48-4.18-46.77-12.53-14.29-8.36-25.61-19.68-33.96-33.96-8.36-14.29-12.53-29.87-12.53-46.77v-7.55c0-16.89,4.18-32.48,12.53-46.77,8.36-14.29,19.68-25.61,33.96-33.96s29.87-12.53,46.77-12.53h5.39c14.02,0,27.22,2.97,39.62,8.9,12.4,5.93,22.91,14.02,31.54,24.26,3.05,3.6,4.22,7.64,3.5,12.13-.72,4.49-3.06,7.91-7.01,10.24-3.06,1.62-6.33,2.11-9.84,1.48-3.5-.63-6.43-2.38-8.76-5.26-6.11-7.19-13.57-12.85-22.37-16.98-8.81-4.13-18.15-6.2-28.03-6.2h-2.43c-18.33,0-34.01,6.47-47.04,19.41-13.03,12.94-19.54,28.57-19.54,46.9v4.31c0,18.33,6.51,34.01,19.54,47.04,13.03,13.03,28.71,19.54,47.04,19.54h2.43c15.99,0,30.1-5.12,42.32-15.36,12.22-10.24,19.77-23,22.64-38.28h-14.29c-3.95,0-7.32-1.39-10.11-4.18-2.79-2.78-4.18-6.15-4.18-10.11s1.39-7.32,4.18-10.11c2.78-2.78,6.15-4.18,10.11-4.18h26.96Z"/>
        <path class="cls-1" d="m183.44,92.06c4.67,0,8.67,1.71,12,5.12,3.32,3.42,4.99,7.46,4.99,12.13,0,16.89-4.18,32.48-12.53,46.77-8.36,14.29-19.68,25.61-33.96,33.96-14.29,8.36-29.88,12.53-46.77,12.53h-5.39c-16.89,0-32.48-4.18-46.77-12.53-14.29-8.36-25.61-19.68-33.96-33.96-8.36-14.29-12.53-29.87-12.53-46.77v-7.55c0-16.89,4.18-32.48,12.53-46.77,8.36-14.29,19.68-25.61,33.96-33.96s29.87-12.53,46.77-12.53h5.39c14.02,0,27.22,2.97,39.62,8.9,12.4,5.93,22.91,14.02,31.54,24.26,3.05,3.6,4.22,7.64,3.5,12.13-.72,4.49-3.06,7.91-7.01,10.24-3.06,1.62-6.33,2.11-9.84,1.48-3.5-.63-6.43-2.38-8.76-5.26-6.11-7.19-13.57-12.85-22.37-16.98-8.81-4.13-18.15-6.2-28.03-6.2h-2.43c-18.33,0-34.01,6.47-47.04,19.41-13.03,12.94-19.54,28.57-19.54,46.9v4.31c0,18.33,6.51,34.01,19.54,47.04,13.03,13.03,28.71,19.54,47.04,19.54h2.43c15.99,0,30.1-5.12,42.32-15.36,12.22-10.24,19.77-23,22.64-38.28h-14.29c-3.95,0-7.32-1.39-10.11-4.18-2.79-2.78-4.18-6.15-4.18-10.11s1.39-7.32,4.18-10.11c2.78-2.78,6.15-4.18,10.11-4.18h26.96Z"/>
        <path class="cls-1" d="m182.44,91.06c4.67,0,8.67,1.71,12,5.12,3.32,3.42,4.99,7.46,4.99,12.13,0,16.89-4.18,32.48-12.53,46.77-8.36,14.29-19.68,25.61-33.96,33.96-14.29,8.36-29.88,12.53-46.77,12.53h-5.39c-16.89,0-32.48-4.18-46.77-12.53-14.29-8.36-25.61-19.68-33.96-33.96-8.36-14.29-12.53-29.87-12.53-46.77v-7.55c0-16.89,4.18-32.48,12.53-46.77,8.36-14.29,19.68-25.61,33.96-33.96s29.87-12.53,46.77-12.53h5.39c14.02,0,27.22,2.97,39.62,8.9,12.4,5.93,22.91,14.02,31.54,24.26,3.05,3.6,4.22,7.64,3.5,12.13-.72,4.49-3.06,7.91-7.01,10.24-3.06,1.62-6.33,2.11-9.84,1.48-3.5-.63-6.43-2.38-8.76-5.26-6.11-7.19-13.57-12.85-22.37-16.98-8.81-4.13-18.15-6.2-28.03-6.2h-2.43c-18.33,0-34.01,6.47-47.04,19.41-13.03,12.94-19.54,28.57-19.54,46.9v4.31c0,18.33,6.51,34.01,19.54,47.04,13.03,13.03,28.71,19.54,47.04,19.54h2.43c15.99,0,30.1-5.12,42.32-15.36,12.22-10.24,19.77-23,22.64-38.28h-14.29c-3.95,0-7.32-1.39-10.11-4.18-2.79-2.78-4.18-6.15-4.18-10.11s1.39-7.32,4.18-10.11c2.78-2.78,6.15-4.18,10.11-4.18h26.96Z"/>
        <path class="cls-1" d="m181.44,90.06c4.67,0,8.67,1.71,12,5.12,3.32,3.42,4.99,7.46,4.99,12.13,0,16.89-4.18,32.48-12.53,46.77-8.36,14.29-19.68,25.61-33.96,33.96-14.29,8.36-29.88,12.53-46.77,12.53h-5.39c-16.89,0-32.48-4.18-46.77-12.53-14.29-8.36-25.61-19.68-33.96-33.96-8.36-14.29-12.53-29.87-12.53-46.77v-7.55c0-16.89,4.18-32.48,12.53-46.77,8.36-14.29,19.68-25.61,33.96-33.96s29.87-12.53,46.77-12.53h5.39c14.02,0,27.22,2.97,39.62,8.9,12.4,5.93,22.91,14.02,31.54,24.26,3.05,3.6,4.22,7.64,3.5,12.13-.72,4.49-3.06,7.91-7.01,10.24-3.06,1.62-6.33,2.11-9.84,1.48-3.5-.63-6.43-2.38-8.76-5.26-6.11-7.19-13.57-12.85-22.37-16.98-8.81-4.13-18.15-6.2-28.03-6.2h-2.43c-18.33,0-34.01,6.47-47.04,19.41-13.03,12.94-19.54,28.57-19.54,46.9v4.31c0,18.33,6.51,34.01,19.54,47.04,13.03,13.03,28.71,19.54,47.04,19.54h2.43c15.99,0,30.1-5.12,42.32-15.36,12.22-10.24,19.77-23,22.64-38.28h-14.29c-3.95,0-7.32-1.39-10.11-4.18-2.79-2.78-4.18-6.15-4.18-10.11s1.39-7.32,4.18-10.11c2.78-2.78,6.15-4.18,10.11-4.18h26.96Z"/>
        <path class="cls-1" d="m180.44,89.06c4.67,0,8.67,1.71,12,5.12,3.32,3.42,4.99,7.46,4.99,12.13,0,16.89-4.18,32.48-12.53,46.77-8.36,14.29-19.68,25.61-33.96,33.96-14.29,8.36-29.88,12.53-46.77,12.53h-5.39c-16.89,0-32.48-4.18-46.77-12.53-14.29-8.36-25.61-19.68-33.96-33.96-8.36-14.29-12.53-29.87-12.53-46.77v-7.55c0-16.89,4.18-32.48,12.53-46.77,8.36-14.29,19.68-25.61,33.96-33.96s29.87-12.53,46.77-12.53h5.39c14.02,0,27.22,2.97,39.62,8.9,12.4,5.93,22.91,14.02,31.54,24.26,3.05,3.6,4.22,7.64,3.5,12.13-.72,4.49-3.06,7.91-7.01,10.24-3.06,1.62-6.33,2.11-9.84,1.48-3.5-.63-6.43-2.38-8.76-5.26-6.11-7.19-13.57-12.85-22.37-16.98-8.81-4.13-18.15-6.2-28.03-6.2h-2.43c-18.33,0-34.01,6.47-47.04,19.41-13.03,12.94-19.54,28.57-19.54,46.9v4.31c0,18.33,6.51,34.01,19.54,47.04,13.03,13.03,28.71,19.54,47.04,19.54h2.43c15.99,0,30.1-5.12,42.32-15.36,12.22-10.24,19.77-23,22.64-38.28h-14.29c-3.95,0-7.32-1.39-10.11-4.18-2.79-2.78-4.18-6.15-4.18-10.11s1.39-7.32,4.18-10.11c2.78-2.78,6.15-4.18,10.11-4.18h26.96Z"/>
        <path class="cls-1" d="m179.44,88.06c4.67,0,8.67,1.71,12,5.12,3.32,3.42,4.99,7.46,4.99,12.13,0,16.89-4.18,32.48-12.53,46.77-8.36,14.29-19.68,25.61-33.96,33.96-14.29,8.36-29.88,12.53-46.77,12.53h-5.39c-16.89,0-32.48-4.18-46.77-12.53-14.29-8.36-25.61-19.68-33.96-33.96-8.36-14.29-12.53-29.87-12.53-46.77v-7.55c0-16.89,4.18-32.48,12.53-46.77,8.36-14.29,19.68-25.61,33.96-33.96s29.87-12.53,46.77-12.53h5.39c14.02,0,27.22,2.97,39.62,8.9,12.4,5.93,22.91,14.02,31.54,24.26,3.05,3.6,4.22,7.64,3.5,12.13-.72,4.49-3.06,7.91-7.01,10.24-3.06,1.62-6.33,2.11-9.84,1.48-3.5-.63-6.43-2.38-8.76-5.26-6.11-7.19-13.57-12.85-22.37-16.98-8.81-4.13-18.15-6.2-28.03-6.2h-2.43c-18.33,0-34.01,6.47-47.04,19.41-13.03,12.94-19.54,28.57-19.54,46.9v4.31c0,18.33,6.51,34.01,19.54,47.04,13.03,13.03,28.71,19.54,47.04,19.54h2.43c15.99,0,30.1-5.12,42.32-15.36,12.22-10.24,19.77-23,22.64-38.28h-14.29c-3.95,0-7.32-1.39-10.11-4.18-2.79-2.78-4.18-6.15-4.18-10.11s1.39-7.32,4.18-10.11c2.78-2.78,6.15-4.18,10.11-4.18h26.96Z"/>
        <path class="cls-1" d="m178.44,87.06c4.67,0,8.67,1.71,12,5.12,3.32,3.42,4.99,7.46,4.99,12.13,0,16.89-4.18,32.48-12.53,46.77-8.36,14.29-19.68,25.61-33.96,33.96-14.29,8.36-29.88,12.53-46.77,12.53h-5.39c-16.89,0-32.48-4.18-46.77-12.53-14.29-8.36-25.61-19.68-33.96-33.96-8.36-14.29-12.53-29.87-12.53-46.77v-7.55c0-16.89,4.18-32.48,12.53-46.77,8.36-14.29,19.68-25.61,33.96-33.96S79.87,3.5,96.76,3.5h5.39c14.02,0,27.22,2.97,39.62,8.9,12.4,5.93,22.91,14.02,31.54,24.26,3.05,3.6,4.22,7.64,3.5,12.13-.72,4.49-3.06,7.91-7.01,10.24-3.06,1.62-6.33,2.11-9.84,1.48-3.5-.63-6.43-2.38-8.76-5.26-6.11-7.19-13.57-12.85-22.37-16.98-8.81-4.13-18.15-6.2-28.03-6.2h-2.43c-18.33,0-34.01,6.47-47.04,19.41-13.03,12.94-19.54,28.57-19.54,46.9v4.31c0,18.33,6.51,34.01,19.54,47.04,13.03,13.03,28.71,19.54,47.04,19.54h2.43c15.99,0,30.1-5.12,42.32-15.36,12.22-10.24,19.77-23,22.64-38.28h-14.29c-3.95,0-7.32-1.39-10.11-4.18-2.79-2.78-4.18-6.15-4.18-10.11s1.39-7.32,4.18-10.11c2.78-2.78,6.15-4.18,10.11-4.18h26.96Z"/>
        <path class="cls-1" d="m177.44,86.06c4.67,0,8.67,1.71,12,5.12,3.32,3.42,4.99,7.46,4.99,12.13,0,16.89-4.18,32.48-12.53,46.77-8.36,14.29-19.68,25.61-33.96,33.96-14.29,8.36-29.88,12.53-46.77,12.53h-5.39c-16.89,0-32.48-4.18-46.77-12.53-14.29-8.36-25.61-19.68-33.96-33.96-8.36-14.29-12.53-29.87-12.53-46.77v-7.55c0-16.89,4.18-32.48,12.53-46.77,8.36-14.29,19.68-25.61,33.96-33.96S78.87,2.5,95.76,2.5h5.39c14.02,0,27.22,2.97,39.62,8.9,12.4,5.93,22.91,14.02,31.54,24.26,3.05,3.6,4.22,7.64,3.5,12.13-.72,4.49-3.06,7.91-7.01,10.24-3.06,1.62-6.33,2.11-9.84,1.48-3.5-.63-6.43-2.38-8.76-5.26-6.11-7.19-13.57-12.85-22.37-16.98-8.81-4.13-18.15-6.2-28.03-6.2h-2.43c-18.33,0-34.01,6.47-47.04,19.41-13.03,12.94-19.54,28.57-19.54,46.9v4.31c0,18.33,6.51,34.01,19.54,47.04,13.03,13.03,28.71,19.54,47.04,19.54h2.43c15.99,0,30.1-5.12,42.32-15.36,12.22-10.24,19.77-23,22.64-38.28h-14.29c-3.95,0-7.32-1.39-10.11-4.18-2.79-2.78-4.18-6.15-4.18-10.11s1.39-7.32,4.18-10.11c2.78-2.78,6.15-4.18,10.11-4.18h26.96Z"/>
        <path class="cls-1" d="m176.44,85.06c4.67,0,8.67,1.71,12,5.12,3.32,3.42,4.99,7.46,4.99,12.13,0,16.89-4.18,32.48-12.53,46.77-8.36,14.29-19.68,25.61-33.96,33.96-14.29,8.36-29.88,12.53-46.77,12.53h-5.39c-16.89,0-32.48-4.18-46.77-12.53-14.29-8.36-25.61-19.68-33.96-33.96-8.36-14.29-12.53-29.87-12.53-46.77v-7.55c0-16.89,4.18-32.48,12.53-46.77,8.36-14.29,19.68-25.61,33.96-33.96S77.87,1.5,94.76,1.5h5.39c14.02,0,27.22,2.97,39.62,8.9,12.4,5.93,22.91,14.02,31.54,24.26,3.05,3.6,4.22,7.64,3.5,12.13-.72,4.49-3.06,7.91-7.01,10.24-3.06,1.62-6.33,2.11-9.84,1.48-3.5-.63-6.43-2.38-8.76-5.26-6.11-7.19-13.57-12.85-22.37-16.98-8.81-4.13-18.15-6.2-28.03-6.2h-2.43c-18.33,0-34.01,6.47-47.04,19.41-13.03,12.94-19.54,28.57-19.54,46.9v4.31c0,18.33,6.51,34.01,19.54,47.04,13.03,13.03,28.71,19.54,47.04,19.54h2.43c15.99,0,30.1-5.12,42.32-15.36,12.22-10.24,19.77-23,22.64-38.28h-14.29c-3.95,0-7.32-1.39-10.11-4.18-2.79-2.78-4.18-6.15-4.18-10.11s1.39-7.32,4.18-10.11c2.78-2.78,6.15-4.18,10.11-4.18h26.96Z"/>
        <path class="cls-1" d="m175.44,84.06c4.67,0,8.67,1.71,12,5.12,3.32,3.42,4.99,7.46,4.99,12.13,0,16.89-4.18,32.48-12.53,46.77-8.36,14.29-19.68,25.61-33.96,33.96-14.29,8.36-29.88,12.53-46.77,12.53h-5.39c-16.89,0-32.48-4.18-46.77-12.53-14.29-8.36-25.61-19.68-33.96-33.96C4.68,133.79.5,118.2.5,101.31v-7.55c0-16.89,4.18-32.48,12.53-46.77,8.36-14.29,19.68-25.61,33.96-33.96S76.87.5,93.76.5h5.39c14.02,0,27.22,2.97,39.62,8.9,12.4,5.93,22.91,14.02,31.54,24.26,3.05,3.6,4.22,7.64,3.5,12.13-.72,4.49-3.06,7.91-7.01,10.24-3.06,1.62-6.33,2.11-9.84,1.48-3.5-.63-6.43-2.38-8.76-5.26-6.11-7.19-13.57-12.85-22.37-16.98-8.81-4.13-18.15-6.2-28.03-6.2h-2.43c-18.33,0-34.01,6.47-47.04,19.41-13.03,12.94-19.54,28.57-19.54,46.9v4.31c0,18.33,6.51,34.01,19.54,47.04,13.03,13.03,28.71,19.54,47.04,19.54h2.43c15.99,0,30.1-5.12,42.32-15.36,12.22-10.24,19.77-23,22.64-38.28h-14.29c-3.95,0-7.32-1.39-10.11-4.18-2.79-2.78-4.18-6.15-4.18-10.11s1.39-7.32,4.18-10.11c2.78-2.78,6.15-4.18,10.11-4.18h26.96Z"/>
      </g>
      <path d="m175.44,84.06c4.67,0,8.67,1.71,12,5.12,3.32,3.42,4.99,7.46,4.99,12.13,0,16.89-4.18,32.48-12.53,46.77-8.36,14.29-19.68,25.61-33.96,33.96-14.29,8.36-29.88,12.53-46.77,12.53h-5.39c-16.89,0-32.48-4.18-46.77-12.53-14.29-8.36-25.61-19.68-33.96-33.96C4.68,133.79.5,118.2.5,101.31v-7.55c0-16.89,4.18-32.48,12.53-46.77,8.36-14.29,19.68-25.61,33.96-33.96S76.87.5,93.76.5h5.39c14.02,0,27.22,2.97,39.62,8.9,12.4,5.93,22.91,14.02,31.54,24.26,3.05,3.6,4.22,7.64,3.5,12.13-.72,4.49-3.06,7.91-7.01,10.24-3.06,1.62-6.33,2.11-9.84,1.48-3.5-.63-6.43-2.38-8.76-5.26-6.11-7.19-13.57-12.85-22.37-16.98-8.81-4.13-18.15-6.2-28.03-6.2h-2.43c-18.33,0-34.01,6.47-47.04,19.41-13.03,12.94-19.54,28.57-19.54,46.9v4.31c0,18.33,6.51,34.01,19.54,47.04,13.03,13.03,28.71,19.54,47.04,19.54h2.43c15.99,0,30.1-5.12,42.32-15.36,12.22-10.24,19.77-23,22.64-38.28h-14.29c-3.95,0-7.32-1.39-10.11-4.18-2.79-2.78-4.18-6.15-4.18-10.11s1.39-7.32,4.18-10.11c2.78-2.78,6.15-4.18,10.11-4.18h26.96Z"/>
      <path class="cls-2" d="m175.44,84.06c4.67,0,8.67,1.71,12,5.12,3.32,3.42,4.99,7.46,4.99,12.13,0,16.89-4.18,32.48-12.53,46.77-8.36,14.29-19.68,25.61-33.96,33.96-14.29,8.36-29.88,12.53-46.77,12.53h-5.39c-16.89,0-32.48-4.18-46.77-12.53-14.29-8.36-25.61-19.68-33.96-33.96C4.68,133.79.5,118.2.5,101.31v-7.55c0-16.89,4.18-32.48,12.53-46.77,8.36-14.29,19.68-25.61,33.96-33.96S76.87.5,93.76.5h5.39c14.02,0,27.22,2.97,39.62,8.9,12.4,5.93,22.91,14.02,31.54,24.26,3.05,3.6,4.22,7.64,3.5,12.13-.72,4.49-3.06,7.91-7.01,10.24-3.06,1.62-6.33,2.11-9.84,1.48-3.5-.63-6.43-2.38-8.76-5.26-6.11-7.19-13.57-12.85-22.37-16.98-8.81-4.13-18.15-6.2-28.03-6.2h-2.43c-18.33,0-34.01,6.47-47.04,19.41-13.03,12.94-19.54,28.57-19.54,46.9v4.31c0,18.33,6.51,34.01,19.54,47.04,13.03,13.03,28.71,19.54,47.04,19.54h2.43c15.99,0,30.1-5.12,42.32-15.36,12.22-10.24,19.77-23,22.64-38.28h-14.29c-3.95,0-7.32-1.39-10.11-4.18-2.79-2.78-4.18-6.15-4.18-10.11s1.39-7.32,4.18-10.11c2.78-2.78,6.15-4.18,10.11-4.18h26.96Z"/>
    </g>
  </g>
</svg>