<?xml version="1.0" encoding="UTF-8"?>
<svg id="Capa_2" data-name="Capa 2" xmlns="http://www.w3.org/2000/svg" viewBox="0 0 385.7 213.29">
  <defs>
    <style>
      .cls-1, .cls-2 {
        fill: #fff;
      }

      .cls-3 {
        fill: none;
        stroke: #fff;
        stroke-miterlimit: 10;
      }

      .cls-4 {
        letter-spacing: .18em;
      }

      .cls-5 {
        letter-spacing: .2em;
      }

      .cls-2 {
        font-family: Aloevera-Light, Aloevera-Light;
        font-size: 25.09px;
        font-weight: 300;
      }
    </style>
  </defs>
  <g id="Capa_1-2" data-name="Capa 1">
    <text class="cls-2" transform="translate(97.7 207.12) scale(1.04 1)"><tspan class="cls-5" x="0" y="0">WEB D</tspan><tspan class="cls-4" x="100.29" y="0">E</tspan><tspan class="cls-5" x="117.73" y="0">SIGN</tspan></text>
    <g>
      <g>
        <g>
          <path class="cls-1" d="m149.96,54.42h-2.03c-2.86,0-6.03-.71-9.49-2.14-3.47-1.43-6.25-3.14-8.36-5.14-10.7-9.43-23.36-14.14-37.97-14.14h-2.26c-15.22,0-28.29,5.14-39.22,15.42-10.93,10.28-16.39,22.71-16.39,37.27v3.64c0,12.42,4.14,23.42,12.43,32.99,8.29,9.57,18.68,15.71,31.19,18.42,2.86.57,5.23,1.89,7.12,3.96,1.88,2.07,2.83,4.46,2.83,7.18,0,3.57-1.43,6.5-4.29,8.78-2.86,2.29-6.03,3.14-9.49,2.57-18.23-3.28-33.38-11.75-45.43-25.38-12.06-13.64-18.08-29.46-18.08-47.45v-5.78c0-13.42,3.5-25.85,10.51-37.27,7.01-11.42,16.5-20.42,28.48-26.99,11.98-6.57,25.05-9.85,39.21-9.85h4.52c11.75,0,22.83,2.32,33.23,6.96,10.4,4.64,19.21,11.03,26.45,19.17,2.56,2.86,3.54,6.07,2.94,9.64-.6,3.57-2.56,6.29-5.88,8.14Zm7.23,22.49c3.92,0,7.27,1.32,10.06,3.96,2.79,2.64,4.18,5.82,4.18,9.53,0,17.14-5.54,32.38-16.61,45.74-11.08,13.36-25.2,22.03-42.38,26.03-3.92,1-7.46.36-10.62-1.93-3.17-2.28-4.75-5.28-4.75-9v-.21c0-2.57.87-4.89,2.6-6.96,1.73-2.07,3.96-3.39,6.67-3.96,10.25-2.71,19.02-7.71,26.33-15,7.31-7.28,11.94-15.85,13.9-25.71h-11.98c-3.32,0-6.14-1.1-8.48-3.32-2.34-2.21-3.5-4.89-3.5-8.03s1.17-5.78,3.5-7.93c2.33-2.14,5.16-3.21,8.48-3.21h22.6Z"/>
          <path class="cls-1" d="m148.96,53.42h-2.03c-2.86,0-6.03-.71-9.49-2.14-3.47-1.43-6.25-3.14-8.36-5.14-10.7-9.43-23.36-14.14-37.97-14.14h-2.26c-15.22,0-28.29,5.14-39.22,15.42-10.93,10.28-16.39,22.71-16.39,37.27v3.64c0,12.42,4.14,23.42,12.43,32.99,8.29,9.57,18.68,15.71,31.19,18.42,2.86.57,5.23,1.89,7.12,3.96,1.88,2.07,2.83,4.46,2.83,7.18,0,3.57-1.43,6.5-4.29,8.78-2.86,2.29-6.03,3.14-9.49,2.57-18.23-3.28-33.38-11.75-45.43-25.38-12.06-13.64-18.08-29.46-18.08-47.45v-5.78c0-13.42,3.5-25.85,10.51-37.27,7.01-11.42,16.5-20.42,28.48-26.99,11.98-6.57,25.05-9.85,39.21-9.85h4.52c11.75,0,22.83,2.32,33.23,6.96,10.4,4.64,19.21,11.03,26.45,19.17,2.56,2.86,3.54,6.07,2.94,9.64-.6,3.57-2.56,6.29-5.88,8.14Zm7.23,22.49c3.92,0,7.27,1.32,10.06,3.96,2.79,2.64,4.18,5.82,4.18,9.53,0,17.14-5.54,32.38-16.61,45.74-11.08,13.36-25.2,22.03-42.38,26.03-3.92,1-7.46.36-10.62-1.93-3.17-2.28-4.75-5.28-4.75-9v-.21c0-2.57.87-4.89,2.6-6.96,1.73-2.07,3.96-3.39,6.67-3.96,10.25-2.71,19.02-7.71,26.33-15,7.31-7.28,11.94-15.85,13.9-25.71h-11.98c-3.32,0-6.14-1.1-8.48-3.32-2.34-2.21-3.5-4.89-3.5-8.03s1.17-5.78,3.5-7.93c2.33-2.14,5.16-3.21,8.48-3.21h22.6Z"/>
          <path class="cls-1" d="m147.96,52.42h-2.03c-2.86,0-6.03-.71-9.49-2.14-3.47-1.43-6.25-3.14-8.36-5.14-10.7-9.43-23.36-14.14-37.97-14.14h-2.26c-15.22,0-28.29,5.14-39.22,15.42-10.93,10.28-16.39,22.71-16.39,37.27v3.64c0,12.42,4.14,23.42,12.43,32.99,8.29,9.57,18.68,15.71,31.19,18.42,2.86.57,5.23,1.89,7.12,3.96,1.88,2.07,2.83,4.46,2.83,7.18,0,3.57-1.43,6.5-4.29,8.78-2.86,2.29-6.03,3.14-9.49,2.57-18.23-3.28-33.38-11.75-45.43-25.38-12.06-13.64-18.08-29.46-18.08-47.45v-5.78c0-13.42,3.5-25.85,10.51-37.27,7.01-11.42,16.5-20.42,28.48-26.99,11.98-6.57,25.05-9.85,39.21-9.85h4.52c11.75,0,22.83,2.32,33.23,6.96,10.4,4.64,19.21,11.03,26.45,19.17,2.56,2.86,3.54,6.07,2.94,9.64-.6,3.57-2.56,6.29-5.88,8.14Zm7.23,22.49c3.92,0,7.27,1.32,10.06,3.96,2.79,2.64,4.18,5.82,4.18,9.53,0,17.14-5.54,32.38-16.61,45.74-11.08,13.36-25.2,22.03-42.38,26.03-3.92,1-7.46.36-10.62-1.93-3.17-2.28-4.75-5.28-4.75-9v-.21c0-2.57.87-4.89,2.6-6.96,1.73-2.07,3.96-3.39,6.67-3.96,10.25-2.71,19.02-7.71,26.33-15,7.31-7.28,11.94-15.85,13.9-25.71h-11.98c-3.32,0-6.14-1.1-8.48-3.32-2.34-2.21-3.5-4.89-3.5-8.03s1.17-5.78,3.5-7.93c2.33-2.14,5.16-3.21,8.48-3.21h22.6Z"/>
          <path class="cls-1" d="m146.96,51.42h-2.03c-2.86,0-6.03-.71-9.49-2.14-3.47-1.43-6.25-3.14-8.36-5.14-10.7-9.43-23.36-14.14-37.97-14.14h-2.26c-15.22,0-28.29,5.14-39.22,15.42-10.93,10.28-16.39,22.71-16.39,37.27v3.64c0,12.42,4.14,23.42,12.43,32.99,8.29,9.57,18.68,15.71,31.19,18.42,2.86.57,5.23,1.89,7.12,3.96,1.88,2.07,2.83,4.46,2.83,7.18,0,3.57-1.43,6.5-4.29,8.78-2.86,2.29-6.03,3.14-9.49,2.57-18.23-3.28-33.38-11.75-45.43-25.38-12.06-13.64-18.08-29.46-18.08-47.45v-5.78c0-13.42,3.5-25.85,10.51-37.27,7.01-11.42,16.5-20.42,28.48-26.99,11.98-6.57,25.05-9.85,39.21-9.85h4.52c11.75,0,22.83,2.32,33.23,6.96,10.4,4.64,19.21,11.03,26.45,19.17,2.56,2.86,3.54,6.07,2.94,9.64-.6,3.57-2.56,6.29-5.88,8.14Zm7.23,22.49c3.92,0,7.27,1.32,10.06,3.96,2.79,2.64,4.18,5.82,4.18,9.53,0,17.14-5.54,32.38-16.61,45.74-11.08,13.36-25.2,22.03-42.38,26.03-3.92,1-7.46.36-10.62-1.93-3.17-2.28-4.75-5.28-4.75-9v-.21c0-2.57.87-4.89,2.6-6.96,1.73-2.07,3.96-3.39,6.67-3.96,10.25-2.71,19.02-7.71,26.33-15,7.31-7.28,11.94-15.85,13.9-25.71h-11.98c-3.32,0-6.14-1.1-8.48-3.32-2.34-2.21-3.5-4.89-3.5-8.03s1.17-5.78,3.5-7.93c2.33-2.14,5.16-3.21,8.48-3.21h22.6Z"/>
          <path class="cls-1" d="m145.96,50.42h-2.03c-2.86,0-6.03-.71-9.49-2.14-3.47-1.43-6.25-3.14-8.36-5.14-10.7-9.43-23.36-14.14-37.97-14.14h-2.26c-15.22,0-28.29,5.14-39.22,15.42-10.93,10.28-16.39,22.71-16.39,37.27v3.64c0,12.42,4.14,23.42,12.43,32.99,8.29,9.57,18.68,15.71,31.19,18.42,2.86.57,5.23,1.89,7.12,3.96,1.88,2.07,2.83,4.46,2.83,7.18,0,3.57-1.43,6.5-4.29,8.78-2.86,2.29-6.03,3.14-9.49,2.57-18.23-3.28-33.38-11.75-45.43-25.38-12.06-13.64-18.08-29.46-18.08-47.45v-5.78c0-13.42,3.5-25.85,10.51-37.27,7.01-11.42,16.5-20.42,28.48-26.99,11.98-6.57,25.05-9.85,39.21-9.85h4.52c11.75,0,22.83,2.32,33.23,6.96,10.4,4.64,19.21,11.03,26.45,19.17,2.56,2.86,3.54,6.07,2.94,9.64-.6,3.57-2.56,6.29-5.88,8.14Zm7.23,22.49c3.92,0,7.27,1.32,10.06,3.96,2.79,2.64,4.18,5.82,4.18,9.53,0,17.14-5.54,32.38-16.61,45.74-11.08,13.36-25.2,22.03-42.38,26.03-3.92,1-7.46.36-10.62-1.93-3.17-2.28-4.75-5.28-4.75-9v-.21c0-2.57.87-4.89,2.6-6.96,1.73-2.07,3.96-3.39,6.67-3.96,10.25-2.71,19.02-7.71,26.33-15,7.31-7.28,11.94-15.85,13.9-25.71h-11.98c-3.32,0-6.14-1.1-8.48-3.32-2.34-2.21-3.5-4.89-3.5-8.03s1.17-5.78,3.5-7.93c2.33-2.14,5.16-3.21,8.48-3.21h22.6Z"/>
          <path class="cls-1" d="m144.96,49.42h-2.03c-2.86,0-6.03-.71-9.49-2.14-3.47-1.43-6.25-3.14-8.36-5.14-10.7-9.43-23.36-14.14-37.97-14.14h-2.26c-15.22,0-28.29,5.14-39.22,15.42-10.93,10.28-16.39,22.71-16.39,37.27v3.64c0,12.42,4.14,23.42,12.43,32.99,8.29,9.57,18.68,15.71,31.19,18.42,2.86.57,5.23,1.89,7.12,3.96,1.88,2.07,2.83,4.46,2.83,7.18,0,3.57-1.43,6.5-4.29,8.78-2.86,2.29-6.03,3.14-9.49,2.57-18.23-3.28-33.38-11.75-45.43-25.38-12.06-13.64-18.08-29.46-18.08-47.45v-5.78c0-13.42,3.5-25.85,10.51-37.27,7.01-11.42,16.5-20.42,28.48-26.99,11.98-6.57,25.05-9.85,39.21-9.85h4.52c11.75,0,22.83,2.32,33.23,6.96,10.4,4.64,19.21,11.03,26.45,19.17,2.56,2.86,3.54,6.07,2.94,9.64-.6,3.57-2.56,6.29-5.88,8.14Zm7.23,22.49c3.92,0,7.27,1.32,10.06,3.96,2.79,2.64,4.18,5.82,4.18,9.53,0,17.14-5.54,32.38-16.61,45.74-11.08,13.36-25.2,22.03-42.38,26.03-3.92,1-7.46.36-10.62-1.93-3.17-2.28-4.75-5.28-4.75-9v-.21c0-2.57.87-4.89,2.6-6.96,1.73-2.07,3.96-3.39,6.67-3.96,10.25-2.71,19.02-7.71,26.33-15,7.31-7.28,11.94-15.85,13.9-25.71h-11.98c-3.32,0-6.14-1.1-8.48-3.32-2.34-2.21-3.5-4.89-3.5-8.03s1.17-5.78,3.5-7.93c2.33-2.14,5.16-3.21,8.48-3.21h22.6Z"/>
          <path class="cls-1" d="m143.96,48.42h-2.03c-2.86,0-6.03-.71-9.49-2.14-3.47-1.43-6.25-3.14-8.36-5.14-10.7-9.43-23.36-14.14-37.97-14.14h-2.26c-15.22,0-28.29,5.14-39.22,15.42-10.93,10.28-16.39,22.71-16.39,37.27v3.64c0,12.42,4.14,23.42,12.43,32.99,8.29,9.57,18.68,15.71,31.19,18.42,2.86.57,5.23,1.89,7.12,3.96,1.88,2.07,2.83,4.46,2.83,7.18,0,3.57-1.43,6.5-4.29,8.78-2.86,2.29-6.03,3.14-9.49,2.57-18.23-3.28-33.38-11.75-45.43-25.38-12.06-13.64-18.08-29.46-18.08-47.45v-5.78c0-13.42,3.5-25.85,10.51-37.27,7.01-11.42,16.5-20.42,28.48-26.99,11.98-6.57,25.05-9.85,39.21-9.85h4.52c11.75,0,22.83,2.32,33.23,6.96,10.4,4.64,19.21,11.03,26.45,19.17,2.56,2.86,3.54,6.07,2.94,9.64-.6,3.57-2.56,6.29-5.88,8.14Zm7.23,22.49c3.92,0,7.27,1.32,10.06,3.96,2.79,2.64,4.18,5.82,4.18,9.53,0,17.14-5.54,32.38-16.61,45.74-11.08,13.36-25.2,22.03-42.38,26.03-3.92,1-7.46.36-10.62-1.93-3.17-2.28-4.75-5.28-4.75-9v-.21c0-2.57.87-4.89,2.6-6.96,1.73-2.07,3.96-3.39,6.67-3.96,10.25-2.71,19.02-7.71,26.33-15,7.31-7.28,11.94-15.85,13.9-25.71h-11.98c-3.32,0-6.14-1.1-8.48-3.32-2.34-2.21-3.5-4.89-3.5-8.03s1.17-5.78,3.5-7.93c2.33-2.14,5.16-3.21,8.48-3.21h22.6Z"/>
          <path class="cls-1" d="m142.96,47.42h-2.03c-2.86,0-6.03-.71-9.49-2.14-3.47-1.43-6.25-3.14-8.36-5.14-10.7-9.43-23.36-14.14-37.97-14.14h-2.26c-15.22,0-28.29,5.14-39.22,15.42-10.93,10.28-16.39,22.71-16.39,37.27v3.64c0,12.42,4.14,23.42,12.43,32.99,8.29,9.57,18.68,15.71,31.19,18.42,2.86.57,5.23,1.89,7.12,3.96,1.88,2.07,2.83,4.46,2.83,7.18,0,3.57-1.43,6.5-4.29,8.78-2.86,2.29-6.03,3.14-9.49,2.57-18.23-3.28-33.38-11.75-45.43-25.38-12.06-13.64-18.08-29.46-18.08-47.45v-5.78c0-13.42,3.5-25.85,10.51-37.27,7.01-11.42,16.5-20.42,28.48-26.99,11.98-6.57,25.05-9.85,39.21-9.85h4.52c11.75,0,22.83,2.32,33.23,6.96,10.4,4.64,19.21,11.03,26.45,19.17,2.56,2.86,3.54,6.07,2.94,9.64-.6,3.57-2.56,6.29-5.88,8.14Zm7.23,22.49c3.92,0,7.27,1.32,10.06,3.96,2.79,2.64,4.18,5.82,4.18,9.53,0,17.14-5.54,32.38-16.61,45.74-11.08,13.36-25.2,22.03-42.38,26.03-3.92,1-7.46.36-10.62-1.93-3.17-2.28-4.75-5.28-4.75-9v-.21c0-2.57.87-4.89,2.6-6.96,1.73-2.07,3.96-3.39,6.67-3.96,10.25-2.71,19.02-7.71,26.33-15,7.31-7.28,11.94-15.85,13.9-25.71h-11.98c-3.32,0-6.14-1.1-8.48-3.32-2.34-2.21-3.5-4.89-3.5-8.03s1.17-5.78,3.5-7.93c2.33-2.14,5.16-3.21,8.48-3.21h22.6Z"/>
          <path class="cls-1" d="m141.96,46.42h-2.03c-2.86,0-6.03-.71-9.49-2.14-3.47-1.43-6.25-3.14-8.36-5.14-10.7-9.43-23.36-14.14-37.97-14.14h-2.26c-15.22,0-28.29,5.14-39.22,15.42-10.93,10.28-16.39,22.71-16.39,37.27v3.64c0,12.42,4.14,23.42,12.43,32.99,8.29,9.57,18.68,15.71,31.19,18.42,2.86.57,5.23,1.89,7.12,3.96,1.88,2.07,2.83,4.46,2.83,7.18,0,3.57-1.43,6.5-4.29,8.78-2.86,2.29-6.03,3.14-9.49,2.57-18.23-3.28-33.38-11.75-45.43-25.38-12.06-13.64-18.08-29.46-18.08-47.45v-5.78c0-13.42,3.5-25.85,10.51-37.27,7.01-11.42,16.5-20.42,28.48-26.99,11.98-6.57,25.05-9.85,39.21-9.85h4.52c11.75,0,22.83,2.32,33.23,6.96,10.4,4.64,19.21,11.03,26.45,19.17,2.56,2.86,3.54,6.07,2.94,9.64-.6,3.57-2.56,6.29-5.88,8.14Zm7.23,22.49c3.92,0,7.27,1.32,10.06,3.96,2.79,2.64,4.18,5.82,4.18,9.53,0,17.14-5.54,32.38-16.61,45.74-11.08,13.36-25.2,22.03-42.38,26.03-3.92,1-7.46.36-10.62-1.93-3.17-2.28-4.75-5.28-4.75-9v-.21c0-2.57.87-4.89,2.6-6.96,1.73-2.07,3.96-3.39,6.67-3.96,10.25-2.71,19.02-7.71,26.33-15,7.31-7.28,11.94-15.85,13.9-25.71h-11.98c-3.32,0-6.14-1.1-8.48-3.32-2.34-2.21-3.5-4.89-3.5-8.03s1.17-5.78,3.5-7.93c2.33-2.14,5.16-3.21,8.48-3.21h22.6Z"/>
          <path class="cls-1" d="m140.96,45.42h-2.03c-2.86,0-6.03-.71-9.49-2.14-3.47-1.43-6.25-3.14-8.36-5.14-10.7-9.43-23.36-14.14-37.97-14.14h-2.26c-15.22,0-28.29,5.14-39.22,15.42-10.93,10.28-16.39,22.71-16.39,37.27v3.64c0,12.42,4.14,23.42,12.43,32.99,8.29,9.57,18.68,15.71,31.19,18.42,2.86.57,5.23,1.89,7.12,3.96,1.88,2.07,2.83,4.46,2.83,7.18,0,3.57-1.43,6.5-4.29,8.78-2.86,2.29-6.03,3.14-9.49,2.57-18.23-3.28-33.38-11.75-45.43-25.38C7.53,115.22,1.5,99.4,1.5,81.4v-5.78c0-13.42,3.5-25.85,10.51-37.27,7.01-11.42,16.5-20.42,28.48-26.99C52.47,4.79,65.54,1.5,79.71,1.5h4.52c11.75,0,22.83,2.32,33.23,6.96,10.4,4.64,19.21,11.03,26.45,19.17,2.56,2.86,3.54,6.07,2.94,9.64-.6,3.57-2.56,6.29-5.88,8.14Zm7.23,22.49c3.92,0,7.27,1.32,10.06,3.96,2.79,2.64,4.18,5.82,4.18,9.53,0,17.14-5.54,32.38-16.61,45.74-11.08,13.36-25.2,22.03-42.38,26.03-3.92,1-7.46.36-10.62-1.93-3.17-2.28-4.75-5.28-4.75-9v-.21c0-2.57.87-4.89,2.6-6.96,1.73-2.07,3.96-3.39,6.67-3.96,10.25-2.71,19.02-7.71,26.33-15,7.31-7.28,11.94-15.85,13.9-25.71h-11.98c-3.32,0-6.14-1.1-8.48-3.32-2.34-2.21-3.5-4.89-3.5-8.03s1.17-5.78,3.5-7.93c2.33-2.14,5.16-3.21,8.48-3.21h22.6Z"/>
          <path class="cls-1" d="m139.96,44.42h-2.03c-2.86,0-6.03-.71-9.49-2.14-3.47-1.43-6.25-3.14-8.36-5.14-10.7-9.43-23.36-14.14-37.97-14.14h-2.26c-15.22,0-28.29,5.14-39.22,15.42-10.93,10.28-16.39,22.71-16.39,37.27v3.64c0,12.42,4.14,23.42,12.43,32.99,8.29,9.57,18.68,15.71,31.19,18.42,2.86.57,5.23,1.89,7.12,3.96,1.88,2.07,2.83,4.46,2.83,7.18,0,3.57-1.43,6.5-4.29,8.78-2.86,2.29-6.03,3.14-9.49,2.57-18.23-3.28-33.38-11.75-45.43-25.38C6.53,114.22.5,98.4.5,80.4v-5.78c0-13.42,3.5-25.85,10.51-37.27,7.01-11.42,16.5-20.42,28.48-26.99C51.47,3.79,64.54.5,78.71.5h4.52c11.75,0,22.83,2.32,33.23,6.96,10.4,4.64,19.21,11.03,26.45,19.17,2.56,2.86,3.54,6.07,2.94,9.64-.6,3.57-2.56,6.29-5.88,8.14Zm7.23,22.49c3.92,0,7.27,1.32,10.06,3.96,2.79,2.64,4.18,5.82,4.18,9.53,0,17.14-5.54,32.38-16.61,45.74-11.08,13.36-25.2,22.03-42.38,26.03-3.92,1-7.46.36-10.62-1.93-3.17-2.28-4.75-5.28-4.75-9v-.21c0-2.57.87-4.89,2.6-6.96,1.73-2.07,3.96-3.39,6.67-3.96,10.25-2.71,19.02-7.71,26.33-15,7.31-7.28,11.94-15.85,13.9-25.71h-11.98c-3.32,0-6.14-1.1-8.48-3.32-2.34-2.21-3.5-4.89-3.5-8.03s1.17-5.78,3.5-7.93c2.33-2.14,5.16-3.21,8.48-3.21h22.6Z"/>
        </g>
        <path d="m139.96,44.42h-2.03c-2.86,0-6.03-.71-9.49-2.14-3.47-1.43-6.25-3.14-8.36-5.14-10.7-9.43-23.36-14.14-37.97-14.14h-2.26c-15.22,0-28.29,5.14-39.22,15.42-10.93,10.28-16.39,22.71-16.39,37.27v3.64c0,12.42,4.14,23.42,12.43,32.99,8.29,9.57,18.68,15.71,31.19,18.42,2.86.57,5.23,1.89,7.12,3.96,1.88,2.07,2.83,4.46,2.83,7.18,0,3.57-1.43,6.5-4.29,8.78-2.86,2.29-6.03,3.14-9.49,2.57-18.23-3.28-33.38-11.75-45.43-25.38C6.53,114.22.5,98.4.5,80.4v-5.78c0-13.42,3.5-25.85,10.51-37.27,7.01-11.42,16.5-20.42,28.48-26.99C51.47,3.79,64.54.5,78.71.5h4.52c11.75,0,22.83,2.32,33.23,6.96,10.4,4.64,19.21,11.03,26.45,19.17,2.56,2.86,3.54,6.07,2.94,9.64-.6,3.57-2.56,6.29-5.88,8.14Zm7.23,22.49c3.92,0,7.27,1.32,10.06,3.96,2.79,2.64,4.18,5.82,4.18,9.53,0,17.14-5.54,32.38-16.61,45.74-11.08,13.36-25.2,22.03-42.38,26.03-3.92,1-7.46.36-10.62-1.93-3.17-2.28-4.75-5.28-4.75-9v-.21c0-2.57.87-4.89,2.6-6.96,1.73-2.07,3.96-3.39,6.67-3.96,10.25-2.71,19.02-7.71,26.33-15,7.31-7.28,11.94-15.85,13.9-25.71h-11.98c-3.32,0-6.14-1.1-8.48-3.32-2.34-2.21-3.5-4.89-3.5-8.03s1.17-5.78,3.5-7.93c2.33-2.14,5.16-3.21,8.48-3.21h22.6Z"/>
        <path class="cls-3" d="m139.96,44.42h-2.03c-2.86,0-6.03-.71-9.49-2.14-3.47-1.43-6.25-3.14-8.36-5.14-10.7-9.43-23.36-14.14-37.97-14.14h-2.26c-15.22,0-28.29,5.14-39.22,15.42-10.93,10.28-16.39,22.71-16.39,37.27v3.64c0,12.42,4.14,23.42,12.43,32.99,8.29,9.57,18.68,15.71,31.19,18.42,2.86.57,5.23,1.89,7.12,3.96,1.88,2.07,2.83,4.46,2.83,7.18,0,3.57-1.43,6.5-4.29,8.78-2.86,2.29-6.03,3.14-9.49,2.57-18.23-3.28-33.38-11.75-45.43-25.38C6.53,114.22.5,98.4.5,80.4v-5.78c0-13.42,3.5-25.85,10.51-37.27,7.01-11.42,16.5-20.42,28.48-26.99C51.47,3.79,64.54.5,78.71.5h4.52c11.75,0,22.83,2.32,33.23,6.96,10.4,4.64,19.21,11.03,26.45,19.17,2.56,2.86,3.54,6.07,2.94,9.64-.6,3.57-2.56,6.29-5.88,8.14Zm7.23,22.49c3.92,0,7.27,1.32,10.06,3.96,2.79,2.64,4.18,5.82,4.18,9.53,0,17.14-5.54,32.38-16.61,45.74-11.08,13.36-25.2,22.03-42.38,26.03-3.92,1-7.46.36-10.62-1.93-3.17-2.28-4.75-5.28-4.75-9v-.21c0-2.57.87-4.89,2.6-6.96,1.73-2.07,3.96-3.39,6.67-3.96,10.25-2.71,19.02-7.71,26.33-15,7.31-7.28,11.94-15.85,13.9-25.71h-11.98c-3.32,0-6.14-1.1-8.48-3.32-2.34-2.21-3.5-4.89-3.5-8.03s1.17-5.78,3.5-7.93c2.33-2.14,5.16-3.21,8.48-3.21h22.6Z"/>
      </g>
      <g>
        <g>
          <path class="cls-1" d="m188.95,16.61c2.33-2.21,5.12-3.32,8.36-3.32s6.02,1.07,8.36,3.21c2.33,2.14,3.5,4.79,3.5,7.93v34.49c0,3.14-1.17,5.78-3.5,7.93-2.34,2.14-5.12,3.21-8.36,3.21s-6.03-1.07-8.36-3.21c-2.34-2.14-3.5-4.78-3.5-7.93V24.42c0-3,1.17-5.6,3.5-7.82Zm0,62.98c2.33-2.21,5.12-3.32,8.36-3.32s6.02,1.11,8.36,3.32c2.33,2.22,3.5,4.89,3.5,8.03v64.05c0,3.14-1.17,5.82-3.5,8.03-2.34,2.22-5.12,3.32-8.36,3.32s-6.03-1.1-8.36-3.32c-2.34-2.21-3.5-4.89-3.5-8.03v-64.05c0-3.14,1.17-5.82,3.5-8.03Z"/>
          <path class="cls-1" d="m187.95,15.61c2.33-2.21,5.12-3.32,8.36-3.32s6.02,1.07,8.36,3.21c2.33,2.14,3.5,4.79,3.5,7.93v34.49c0,3.14-1.17,5.78-3.5,7.93-2.34,2.14-5.12,3.21-8.36,3.21s-6.03-1.07-8.36-3.21c-2.34-2.14-3.5-4.78-3.5-7.93V23.42c0-3,1.17-5.6,3.5-7.82Zm0,62.98c2.33-2.21,5.12-3.32,8.36-3.32s6.02,1.11,8.36,3.32c2.33,2.22,3.5,4.89,3.5,8.03v64.05c0,3.14-1.17,5.82-3.5,8.03-2.34,2.22-5.12,3.32-8.36,3.32s-6.03-1.1-8.36-3.32c-2.34-2.21-3.5-4.89-3.5-8.03v-64.05c0-3.14,1.17-5.82,3.5-8.03Z"/>
          <path class="cls-1" d="m186.95,14.61c2.33-2.21,5.12-3.32,8.36-3.32s6.02,1.07,8.36,3.21c2.33,2.14,3.5,4.79,3.5,7.93v34.49c0,3.14-1.17,5.78-3.5,7.93-2.34,2.14-5.12,3.21-8.36,3.21s-6.03-1.07-8.36-3.21c-2.34-2.14-3.5-4.78-3.5-7.93V22.42c0-3,1.17-5.6,3.5-7.82Zm0,62.98c2.33-2.21,5.12-3.32,8.36-3.32s6.02,1.11,8.36,3.32c2.33,2.22,3.5,4.89,3.5,8.03v64.05c0,3.14-1.17,5.82-3.5,8.03-2.34,2.22-5.12,3.32-8.36,3.32s-6.03-1.1-8.36-3.32c-2.34-2.21-3.5-4.89-3.5-8.03v-64.05c0-3.14,1.17-5.82,3.5-8.03Z"/>
          <path class="cls-1" d="m185.95,13.61c2.33-2.21,5.12-3.32,8.36-3.32s6.02,1.07,8.36,3.21c2.33,2.14,3.5,4.79,3.5,7.93v34.49c0,3.14-1.17,5.78-3.5,7.93-2.34,2.14-5.12,3.21-8.36,3.21s-6.03-1.07-8.36-3.21c-2.34-2.14-3.5-4.78-3.5-7.93V21.42c0-3,1.17-5.6,3.5-7.82Zm0,62.98c2.33-2.21,5.12-3.32,8.36-3.32s6.02,1.11,8.36,3.32c2.33,2.22,3.5,4.89,3.5,8.03v64.05c0,3.14-1.17,5.82-3.5,8.03-2.34,2.22-5.12,3.32-8.36,3.32s-6.03-1.1-8.36-3.32c-2.34-2.21-3.5-4.89-3.5-8.03v-64.05c0-3.14,1.17-5.82,3.5-8.03Z"/>
          <path class="cls-1" d="m184.95,12.61c2.33-2.21,5.12-3.32,8.36-3.32s6.02,1.07,8.36,3.21c2.33,2.14,3.5,4.79,3.5,7.93v34.49c0,3.14-1.17,5.78-3.5,7.93-2.34,2.14-5.12,3.21-8.36,3.21s-6.03-1.07-8.36-3.21c-2.34-2.14-3.5-4.78-3.5-7.93V20.42c0-3,1.17-5.6,3.5-7.82Zm0,62.98c2.33-2.21,5.12-3.32,8.36-3.32s6.02,1.11,8.36,3.32c2.33,2.22,3.5,4.89,3.5,8.03v64.05c0,3.14-1.17,5.82-3.5,8.03-2.34,2.22-5.12,3.32-8.36,3.32s-6.03-1.1-8.36-3.32c-2.34-2.21-3.5-4.89-3.5-8.03v-64.05c0-3.14,1.17-5.82,3.5-8.03Z"/>
          <path class="cls-1" d="m183.95,11.61c2.33-2.21,5.12-3.32,8.36-3.32s6.02,1.07,8.36,3.21c2.33,2.14,3.5,4.79,3.5,7.93v34.49c0,3.14-1.17,5.78-3.5,7.93-2.34,2.14-5.12,3.21-8.36,3.21s-6.03-1.07-8.36-3.21c-2.34-2.14-3.5-4.78-3.5-7.93V19.42c0-3,1.17-5.6,3.5-7.82Zm0,62.98c2.33-2.21,5.12-3.32,8.36-3.32s6.02,1.11,8.36,3.32c2.33,2.22,3.5,4.89,3.5,8.03v64.05c0,3.14-1.17,5.82-3.5,8.03-2.34,2.22-5.12,3.32-8.36,3.32s-6.03-1.1-8.36-3.32c-2.34-2.21-3.5-4.89-3.5-8.03v-64.05c0-3.14,1.17-5.82,3.5-8.03Z"/>
          <path class="cls-1" d="m182.95,10.61c2.33-2.21,5.12-3.32,8.36-3.32s6.02,1.07,8.36,3.21c2.33,2.14,3.5,4.79,3.5,7.93v34.49c0,3.14-1.17,5.78-3.5,7.93-2.34,2.14-5.12,3.21-8.36,3.21s-6.03-1.07-8.36-3.21c-2.34-2.14-3.5-4.78-3.5-7.93V18.42c0-3,1.17-5.6,3.5-7.82Zm0,62.98c2.33-2.21,5.12-3.32,8.36-3.32s6.02,1.11,8.36,3.32c2.33,2.22,3.5,4.89,3.5,8.03v64.05c0,3.14-1.17,5.82-3.5,8.03-2.34,2.22-5.12,3.32-8.36,3.32s-6.03-1.1-8.36-3.32c-2.34-2.21-3.5-4.89-3.5-8.03v-64.05c0-3.14,1.17-5.82,3.5-8.03Z"/>
          <path class="cls-1" d="m181.95,9.61c2.33-2.21,5.12-3.32,8.36-3.32s6.02,1.07,8.36,3.21c2.33,2.14,3.5,4.79,3.5,7.93v34.49c0,3.14-1.17,5.78-3.5,7.93-2.34,2.14-5.12,3.21-8.36,3.21s-6.03-1.07-8.36-3.21c-2.34-2.14-3.5-4.78-3.5-7.93V17.42c0-3,1.17-5.6,3.5-7.82Zm0,62.98c2.33-2.21,5.12-3.32,8.36-3.32s6.02,1.11,8.36,3.32c2.33,2.22,3.5,4.89,3.5,8.03v64.05c0,3.14-1.17,5.82-3.5,8.03-2.34,2.22-5.12,3.32-8.36,3.32s-6.03-1.1-8.36-3.32c-2.34-2.21-3.5-4.89-3.5-8.03v-64.05c0-3.14,1.17-5.82,3.5-8.03Z"/>
          <path class="cls-1" d="m180.95,8.61c2.33-2.21,5.12-3.32,8.36-3.32s6.02,1.07,8.36,3.21c2.33,2.14,3.5,4.79,3.5,7.93v34.49c0,3.14-1.17,5.78-3.5,7.93-2.34,2.14-5.12,3.21-8.36,3.21s-6.03-1.07-8.36-3.21c-2.34-2.14-3.5-4.78-3.5-7.93V16.42c0-3,1.17-5.6,3.5-7.82Zm0,62.98c2.33-2.21,5.12-3.32,8.36-3.32s6.02,1.11,8.36,3.32c2.33,2.22,3.5,4.89,3.5,8.03v64.05c0,3.14-1.17,5.82-3.5,8.03-2.34,2.22-5.12,3.32-8.36,3.32s-6.03-1.1-8.36-3.32c-2.34-2.21-3.5-4.89-3.5-8.03v-64.05c0-3.14,1.17-5.82,3.5-8.03Z"/>
          <path class="cls-1" d="m179.95,7.61c2.33-2.21,5.12-3.32,8.36-3.32s6.02,1.07,8.36,3.21c2.33,2.14,3.5,4.79,3.5,7.93v34.49c0,3.14-1.17,5.78-3.5,7.93-2.34,2.14-5.12,3.21-8.36,3.21s-6.03-1.07-8.36-3.21c-2.34-2.14-3.5-4.78-3.5-7.93V15.42c0-3,1.17-5.6,3.5-7.82Zm0,62.98c2.33-2.21,5.12-3.32,8.36-3.32s6.02,1.11,8.36,3.32c2.33,2.22,3.5,4.89,3.5,8.03v64.05c0,3.14-1.17,5.82-3.5,8.03-2.34,2.22-5.12,3.32-8.36,3.32s-6.03-1.1-8.36-3.32c-2.34-2.21-3.5-4.89-3.5-8.03v-64.05c0-3.14,1.17-5.82,3.5-8.03Z"/>
          <path class="cls-1" d="m178.95,6.61c2.33-2.21,5.12-3.32,8.36-3.32s6.02,1.07,8.36,3.21c2.33,2.14,3.5,4.79,3.5,7.93v34.49c0,3.14-1.17,5.78-3.5,7.93-2.34,2.14-5.12,3.21-8.36,3.21s-6.03-1.07-8.36-3.21c-2.34-2.14-3.5-4.78-3.5-7.93V14.42c0-3,1.17-5.6,3.5-7.82Zm0,62.98c2.33-2.21,5.12-3.32,8.36-3.32s6.02,1.11,8.36,3.32c2.33,2.22,3.5,4.89,3.5,8.03v64.05c0,3.14-1.17,5.82-3.5,8.03-2.34,2.22-5.12,3.32-8.36,3.32s-6.03-1.1-8.36-3.32c-2.34-2.21-3.5-4.89-3.5-8.03v-64.05c0-3.14,1.17-5.82,3.5-8.03Z"/>
        </g>
        <path d="m178.95,6.61c2.33-2.21,5.12-3.32,8.36-3.32s6.02,1.07,8.36,3.21c2.33,2.14,3.5,4.79,3.5,7.93v34.49c0,3.14-1.17,5.78-3.5,7.93-2.34,2.14-5.12,3.21-8.36,3.21s-6.03-1.07-8.36-3.21c-2.34-2.14-3.5-4.78-3.5-7.93V14.42c0-3,1.17-5.6,3.5-7.82Zm0,62.98c2.33-2.21,5.12-3.32,8.36-3.32s6.02,1.11,8.36,3.32c2.33,2.22,3.5,4.89,3.5,8.03v64.05c0,3.14-1.17,5.82-3.5,8.03-2.34,2.22-5.12,3.32-8.36,3.32s-6.03-1.1-8.36-3.32c-2.34-2.21-3.5-4.89-3.5-8.03v-64.05c0-3.14,1.17-5.82,3.5-8.03Z"/>
        <path class="cls-3" d="m178.95,6.61c2.33-2.21,5.12-3.32,8.36-3.32s6.02,1.07,8.36,3.21c2.33,2.14,3.5,4.79,3.5,7.93v34.49c0,3.14-1.17,5.78-3.5,7.93-2.34,2.14-5.12,3.21-8.36,3.21s-6.03-1.07-8.36-3.21c-2.34-2.14-3.5-4.78-3.5-7.93V14.42c0-3,1.17-5.6,3.5-7.82Zm0,62.98c2.33-2.21,5.12-3.32,8.36-3.32s6.02,1.11,8.36,3.32c2.33,2.22,3.5,4.89,3.5,8.03v64.05c0,3.14-1.17,5.82-3.5,8.03-2.34,2.22-5.12,3.32-8.36,3.32s-6.03-1.1-8.36-3.32c-2.34-2.21-3.5-4.89-3.5-8.03v-64.05c0-3.14,1.17-5.82,3.5-8.03Z"/>
      </g>
      <g>
        <g>
          <path class="cls-1" d="m302.98,10.5h4.52c14.16,0,27.24,3.29,39.22,9.85,11.98,6.57,21.47,15.57,28.48,26.99,7.01,11.43,10.51,23.85,10.51,37.27v5.78c0,17.43-5.73,32.88-17.18,46.38-11.45,13.5-25.99,22.1-43.62,25.81-3.77.86-7.2.14-10.28-2.14-3.09-2.28-4.63-5.28-4.63-9,0-2.57.9-4.89,2.71-6.96,1.81-2.07,4.07-3.39,6.78-3.96,12.35-2.86,22.52-9.03,30.51-18.53,7.98-9.5,11.98-20.38,11.98-32.67v-3.64c0-14.57-5.42-26.99-16.27-37.27-10.85-10.28-23.96-15.42-39.33-15.42h-2.26c-15.37,0-28.48,5.14-39.33,15.42-10.85,10.28-16.27,22.71-16.27,37.27v3.64c0,12.28,3.99,23.17,11.98,32.67,7.99,9.5,18.16,15.67,30.51,18.53,2.86.57,5.16,1.89,6.89,3.96,1.73,2.07,2.6,4.39,2.6,6.96,0,3.71-1.55,6.71-4.63,9-3.09,2.29-6.52,3-10.28,2.14-17.63-3.71-32.17-12.32-43.62-25.81-11.45-13.5-17.18-28.95-17.18-46.38v-5.78c0-13.42,3.5-25.85,10.51-37.27,7.01-11.42,16.5-20.42,28.48-26.99,11.98-6.57,25.05-9.85,39.21-9.85Z"/>
          <path class="cls-1" d="m301.98,9.5h4.52c14.16,0,27.24,3.29,39.22,9.85,11.98,6.57,21.47,15.57,28.48,26.99,7.01,11.43,10.51,23.85,10.51,37.27v5.78c0,17.43-5.73,32.88-17.18,46.38-11.45,13.5-25.99,22.1-43.62,25.81-3.77.86-7.2.14-10.28-2.14-3.09-2.28-4.63-5.28-4.63-9,0-2.57.9-4.89,2.71-6.96,1.81-2.07,4.07-3.39,6.78-3.96,12.35-2.86,22.52-9.03,30.51-18.53,7.98-9.5,11.98-20.38,11.98-32.67v-3.64c0-14.57-5.42-26.99-16.27-37.27-10.85-10.28-23.96-15.42-39.33-15.42h-2.26c-15.37,0-28.48,5.14-39.33,15.42-10.85,10.28-16.27,22.71-16.27,37.27v3.64c0,12.28,3.99,23.17,11.98,32.67,7.99,9.5,18.16,15.67,30.51,18.53,2.86.57,5.16,1.89,6.89,3.96,1.73,2.07,2.6,4.39,2.6,6.96,0,3.71-1.55,6.71-4.63,9-3.09,2.29-6.52,3-10.28,2.14-17.63-3.71-32.17-12.32-43.62-25.81-11.45-13.5-17.18-28.95-17.18-46.38v-5.78c0-13.42,3.5-25.85,10.51-37.27,7.01-11.42,16.5-20.42,28.48-26.99,11.98-6.57,25.05-9.85,39.21-9.85Z"/>
          <path class="cls-1" d="m300.98,8.5h4.52c14.16,0,27.24,3.29,39.22,9.85,11.98,6.57,21.47,15.57,28.48,26.99,7.01,11.43,10.51,23.85,10.51,37.27v5.78c0,17.43-5.73,32.88-17.18,46.38-11.45,13.5-25.99,22.1-43.62,25.81-3.77.86-7.2.14-10.28-2.14-3.09-2.28-4.63-5.28-4.63-9,0-2.57.9-4.89,2.71-6.96,1.81-2.07,4.07-3.39,6.78-3.96,12.35-2.86,22.52-9.03,30.51-18.53,7.98-9.5,11.98-20.38,11.98-32.67v-3.64c0-14.57-5.42-26.99-16.27-37.27-10.85-10.28-23.96-15.42-39.33-15.42h-2.26c-15.37,0-28.48,5.14-39.33,15.42-10.85,10.28-16.27,22.71-16.27,37.27v3.64c0,12.28,3.99,23.17,11.98,32.67,7.99,9.5,18.16,15.67,30.51,18.53,2.86.57,5.16,1.89,6.89,3.96,1.73,2.07,2.6,4.39,2.6,6.96,0,3.71-1.55,6.71-4.63,9-3.09,2.29-6.52,3-10.28,2.14-17.63-3.71-32.17-12.32-43.62-25.81-11.45-13.5-17.18-28.95-17.18-46.38v-5.78c0-13.42,3.5-25.85,10.51-37.27,7.01-11.42,16.5-20.42,28.48-26.99,11.98-6.57,25.05-9.85,39.21-9.85Z"/>
          <path class="cls-1" d="m299.98,7.5h4.52c14.16,0,27.24,3.29,39.22,9.85,11.98,6.57,21.47,15.57,28.48,26.99,7.01,11.43,10.51,23.85,10.51,37.27v5.78c0,17.43-5.73,32.88-17.18,46.38-11.45,13.5-25.99,22.1-43.62,25.81-3.77.86-7.2.14-10.28-2.14-3.09-2.28-4.63-5.28-4.63-9,0-2.57.9-4.89,2.71-6.96,1.81-2.07,4.07-3.39,6.78-3.96,12.35-2.86,22.52-9.03,30.51-18.53,7.98-9.5,11.98-20.38,11.98-32.67v-3.64c0-14.57-5.42-26.99-16.27-37.27-10.85-10.28-23.96-15.42-39.33-15.42h-2.26c-15.37,0-28.48,5.14-39.33,15.42-10.85,10.28-16.27,22.71-16.27,37.27v3.64c0,12.28,3.99,23.17,11.98,32.67,7.99,9.5,18.16,15.67,30.51,18.53,2.86.57,5.16,1.89,6.89,3.96,1.73,2.07,2.6,4.39,2.6,6.96,0,3.71-1.55,6.71-4.63,9-3.09,2.29-6.52,3-10.28,2.14-17.63-3.71-32.17-12.32-43.62-25.81-11.45-13.5-17.18-28.95-17.18-46.38v-5.78c0-13.42,3.5-25.85,10.51-37.27,7.01-11.42,16.5-20.42,28.48-26.99,11.98-6.57,25.05-9.85,39.21-9.85Z"/>
          <path class="cls-1" d="m298.98,6.5h4.52c14.16,0,27.24,3.29,39.22,9.85,11.98,6.57,21.47,15.57,28.48,26.99,7.01,11.43,10.51,23.85,10.51,37.27v5.78c0,17.43-5.73,32.88-17.18,46.38-11.45,13.5-25.99,22.1-43.62,25.81-3.77.86-7.2.14-10.28-2.14-3.09-2.28-4.63-5.28-4.63-9,0-2.57.9-4.89,2.71-6.96,1.81-2.07,4.07-3.39,6.78-3.96,12.35-2.86,22.52-9.03,30.51-18.53,7.98-9.5,11.98-20.38,11.98-32.67v-3.64c0-14.57-5.42-26.99-16.27-37.27-10.85-10.28-23.96-15.42-39.33-15.42h-2.26c-15.37,0-28.48,5.14-39.33,15.42-10.85,10.28-16.27,22.71-16.27,37.27v3.64c0,12.28,3.99,23.17,11.98,32.67,7.99,9.5,18.16,15.67,30.51,18.53,2.86.57,5.16,1.89,6.89,3.96,1.73,2.07,2.6,4.39,2.6,6.96,0,3.71-1.55,6.71-4.63,9-3.09,2.29-6.52,3-10.28,2.14-17.63-3.71-32.17-12.32-43.62-25.81-11.45-13.5-17.18-28.95-17.18-46.38v-5.78c0-13.42,3.5-25.85,10.51-37.27,7.01-11.42,16.5-20.42,28.48-26.99,11.98-6.57,25.05-9.85,39.21-9.85Z"/>
          <path class="cls-1" d="m297.98,5.5h4.52c14.16,0,27.24,3.29,39.22,9.85,11.98,6.57,21.47,15.57,28.48,26.99,7.01,11.43,10.51,23.85,10.51,37.27v5.78c0,17.43-5.73,32.88-17.18,46.38-11.45,13.5-25.99,22.1-43.62,25.81-3.77.86-7.2.14-10.28-2.14-3.09-2.28-4.63-5.28-4.63-9,0-2.57.9-4.89,2.71-6.96,1.81-2.07,4.07-3.39,6.78-3.96,12.35-2.86,22.52-9.03,30.51-18.53,7.98-9.5,11.98-20.38,11.98-32.67v-3.64c0-14.57-5.42-26.99-16.27-37.27-10.85-10.28-23.96-15.42-39.33-15.42h-2.26c-15.37,0-28.48,5.14-39.33,15.42-10.85,10.28-16.27,22.71-16.27,37.27v3.64c0,12.28,3.99,23.17,11.98,32.67,7.99,9.5,18.16,15.67,30.51,18.53,2.86.57,5.16,1.89,6.89,3.96,1.73,2.07,2.6,4.39,2.6,6.96,0,3.71-1.55,6.71-4.63,9-3.09,2.29-6.52,3-10.28,2.14-17.63-3.71-32.17-12.32-43.62-25.81-11.45-13.5-17.18-28.95-17.18-46.38v-5.78c0-13.42,3.5-25.85,10.51-37.27,7.01-11.42,16.5-20.42,28.48-26.99,11.98-6.57,25.05-9.85,39.21-9.85Z"/>
          <path class="cls-1" d="m296.98,4.5h4.52c14.16,0,27.24,3.29,39.22,9.85,11.98,6.57,21.47,15.57,28.48,26.99,7.01,11.43,10.51,23.85,10.51,37.27v5.78c0,17.43-5.73,32.88-17.18,46.38-11.45,13.5-25.99,22.1-43.62,25.81-3.77.86-7.2.14-10.28-2.14-3.09-2.28-4.63-5.28-4.63-9,0-2.57.9-4.89,2.71-6.96,1.81-2.07,4.07-3.39,6.78-3.96,12.35-2.86,22.52-9.03,30.51-18.53,7.98-9.5,11.98-20.38,11.98-32.67v-3.64c0-14.57-5.42-26.99-16.27-37.27-10.85-10.28-23.96-15.42-39.33-15.42h-2.26c-15.37,0-28.48,5.14-39.33,15.42-10.85,10.28-16.27,22.71-16.27,37.27v3.64c0,12.28,3.99,23.17,11.98,32.67,7.99,9.5,18.16,15.67,30.51,18.53,2.86.57,5.16,1.89,6.89,3.96,1.73,2.07,2.6,4.39,2.6,6.96,0,3.71-1.55,6.71-4.63,9-3.09,2.29-6.52,3-10.28,2.14-17.63-3.71-32.17-12.32-43.62-25.81-11.45-13.5-17.18-28.95-17.18-46.38v-5.78c0-13.42,3.5-25.85,10.51-37.27,7.01-11.42,16.5-20.42,28.48-26.99,11.98-6.57,25.05-9.85,39.21-9.85Z"/>
          <path class="cls-1" d="m295.98,3.5h4.52c14.16,0,27.24,3.29,39.22,9.85,11.98,6.57,21.47,15.57,28.48,26.99,7.01,11.43,10.51,23.85,10.51,37.27v5.78c0,17.43-5.73,32.88-17.18,46.38-11.45,13.5-25.99,22.1-43.62,25.81-3.77.86-7.2.14-10.28-2.14-3.09-2.28-4.63-5.28-4.63-9,0-2.57.9-4.89,2.71-6.96,1.81-2.07,4.07-3.39,6.78-3.96,12.35-2.86,22.52-9.03,30.51-18.53,7.98-9.5,11.98-20.38,11.98-32.67v-3.64c0-14.57-5.42-26.99-16.27-37.27-10.85-10.28-23.96-15.42-39.33-15.42h-2.26c-15.37,0-28.48,5.14-39.33,15.42-10.85,10.28-16.27,22.71-16.27,37.27v3.64c0,12.28,3.99,23.17,11.98,32.67,7.99,9.5,18.16,15.67,30.51,18.53,2.86.57,5.16,1.89,6.89,3.96,1.73,2.07,2.6,4.39,2.6,6.96,0,3.71-1.55,6.71-4.63,9-3.09,2.29-6.52,3-10.28,2.14-17.63-3.71-32.17-12.32-43.62-25.81-11.45-13.5-17.18-28.95-17.18-46.38v-5.78c0-13.42,3.5-25.85,10.51-37.27,7.01-11.42,16.5-20.42,28.48-26.99,11.98-6.57,25.05-9.85,39.21-9.85Z"/>
          <path class="cls-1" d="m294.98,2.5h4.52c14.16,0,27.24,3.29,39.22,9.85,11.98,6.57,21.47,15.57,28.48,26.99,7.01,11.43,10.51,23.85,10.51,37.27v5.78c0,17.43-5.73,32.88-17.18,46.38-11.45,13.5-25.99,22.1-43.62,25.81-3.77.86-7.2.14-10.28-2.14-3.09-2.28-4.63-5.28-4.63-9,0-2.57.9-4.89,2.71-6.96,1.81-2.07,4.07-3.39,6.78-3.96,12.35-2.86,22.52-9.03,30.51-18.53,7.98-9.5,11.98-20.38,11.98-32.67v-3.64c0-14.57-5.42-26.99-16.27-37.27-10.85-10.28-23.96-15.42-39.33-15.42h-2.26c-15.37,0-28.48,5.14-39.33,15.42-10.85,10.28-16.27,22.71-16.27,37.27v3.64c0,12.28,3.99,23.17,11.98,32.67,7.99,9.5,18.16,15.67,30.51,18.53,2.86.57,5.16,1.89,6.89,3.96,1.73,2.07,2.6,4.39,2.6,6.96,0,3.71-1.55,6.71-4.63,9-3.09,2.29-6.52,3-10.28,2.14-17.63-3.71-32.17-12.32-43.62-25.81-11.45-13.5-17.18-28.95-17.18-46.38v-5.78c0-13.42,3.5-25.85,10.51-37.27,7.01-11.42,16.5-20.42,28.48-26.99,11.98-6.57,25.05-9.85,39.21-9.85Z"/>
          <path class="cls-1" d="m293.98,1.5h4.52c14.16,0,27.24,3.29,39.22,9.85,11.98,6.57,21.47,15.57,28.48,26.99,7.01,11.43,10.51,23.85,10.51,37.27v5.78c0,17.43-5.73,32.88-17.18,46.38-11.45,13.5-25.99,22.1-43.62,25.81-3.77.86-7.2.14-10.28-2.14-3.09-2.28-4.63-5.28-4.63-9,0-2.57.9-4.89,2.71-6.96,1.81-2.07,4.07-3.39,6.78-3.96,12.35-2.86,22.52-9.03,30.51-18.53,7.98-9.5,11.98-20.38,11.98-32.67v-3.64c0-14.57-5.42-26.99-16.27-37.27-10.85-10.28-23.96-15.42-39.33-15.42h-2.26c-15.37,0-28.48,5.14-39.33,15.42-10.85,10.28-16.27,22.71-16.27,37.27v3.64c0,12.28,3.99,23.17,11.98,32.67,7.99,9.5,18.16,15.67,30.51,18.53,2.86.57,5.16,1.89,6.89,3.96,1.73,2.07,2.6,4.39,2.6,6.96,0,3.71-1.55,6.71-4.63,9-3.09,2.29-6.52,3-10.28,2.14-17.63-3.71-32.17-12.32-43.62-25.81-11.45-13.5-17.18-28.95-17.18-46.38v-5.78c0-13.42,3.5-25.85,10.51-37.27,7.01-11.42,16.5-20.42,28.48-26.99,11.98-6.57,25.05-9.85,39.21-9.85Z"/>
          <path class="cls-1" d="m292.98.5h4.52c14.16,0,27.24,3.29,39.22,9.85,11.98,6.57,21.47,15.57,28.48,26.99,7.01,11.43,10.51,23.85,10.51,37.27v5.78c0,17.43-5.73,32.88-17.18,46.38-11.45,13.5-25.99,22.1-43.62,25.81-3.77.86-7.2.14-10.28-2.14-3.09-2.28-4.63-5.28-4.63-9,0-2.57.9-4.89,2.71-6.96,1.81-2.07,4.07-3.39,6.78-3.96,12.35-2.86,22.52-9.03,30.51-18.53,7.98-9.5,11.98-20.38,11.98-32.67v-3.64c0-14.57-5.42-26.99-16.27-37.27-10.85-10.28-23.96-15.42-39.33-15.42h-2.26c-15.37,0-28.48,5.14-39.33,15.42-10.85,10.28-16.27,22.71-16.27,37.27v3.64c0,12.28,3.99,23.17,11.98,32.67,7.99,9.5,18.16,15.67,30.51,18.53,2.86.57,5.16,1.89,6.89,3.96,1.73,2.07,2.6,4.39,2.6,6.96,0,3.71-1.55,6.71-4.63,9-3.09,2.29-6.52,3-10.28,2.14-17.63-3.71-32.17-12.32-43.62-25.81-11.45-13.5-17.18-28.95-17.18-46.38v-5.78c0-13.42,3.5-25.85,10.51-37.27,7.01-11.42,16.5-20.42,28.48-26.99,11.98-6.57,25.05-9.85,39.21-9.85Z"/>
        </g>
        <path d="m292.98.5h4.52c14.16,0,27.24,3.29,39.22,9.85,11.98,6.57,21.47,15.57,28.48,26.99,7.01,11.43,10.51,23.85,10.51,37.27v5.78c0,17.43-5.73,32.88-17.18,46.38-11.45,13.5-25.99,22.1-43.62,25.81-3.77.86-7.2.14-10.28-2.14-3.09-2.28-4.63-5.28-4.63-9,0-2.57.9-4.89,2.71-6.96,1.81-2.07,4.07-3.39,6.78-3.96,12.35-2.86,22.52-9.03,30.51-18.53,7.98-9.5,11.98-20.38,11.98-32.67v-3.64c0-14.57-5.42-26.99-16.27-37.27-10.85-10.28-23.96-15.42-39.33-15.42h-2.26c-15.37,0-28.48,5.14-39.33,15.42-10.85,10.28-16.27,22.71-16.27,37.27v3.64c0,12.28,3.99,23.17,11.98,32.67,7.99,9.5,18.16,15.67,30.51,18.53,2.86.57,5.16,1.89,6.89,3.96,1.73,2.07,2.6,4.39,2.6,6.96,0,3.71-1.55,6.71-4.63,9-3.09,2.29-6.52,3-10.28,2.14-17.63-3.71-32.17-12.32-43.62-25.81-11.45-13.5-17.18-28.95-17.18-46.38v-5.78c0-13.42,3.5-25.85,10.51-37.27,7.01-11.42,16.5-20.42,28.48-26.99,11.98-6.57,25.05-9.85,39.21-9.85Z"/>
        <path class="cls-3" d="m292.98.5h4.52c14.16,0,27.24,3.29,39.22,9.85,11.98,6.57,21.47,15.57,28.48,26.99,7.01,11.43,10.51,23.85,10.51,37.27v5.78c0,17.43-5.73,32.88-17.18,46.38-11.45,13.5-25.99,22.1-43.62,25.81-3.77.86-7.2.14-10.28-2.14-3.09-2.28-4.63-5.28-4.63-9,0-2.57.9-4.89,2.71-6.96,1.81-2.07,4.07-3.39,6.78-3.96,12.35-2.86,22.52-9.03,30.51-18.53,7.98-9.5,11.98-20.38,11.98-32.67v-3.64c0-14.57-5.42-26.99-16.27-37.27-10.85-10.28-23.96-15.42-39.33-15.42h-2.26c-15.37,0-28.48,5.14-39.33,15.42-10.85,10.28-16.27,22.71-16.27,37.27v3.64c0,12.28,3.99,23.17,11.98,32.67,7.99,9.5,18.16,15.67,30.51,18.53,2.86.57,5.16,1.89,6.89,3.96,1.73,2.07,2.6,4.39,2.6,6.96,0,3.71-1.55,6.71-4.63,9-3.09,2.29-6.52,3-10.28,2.14-17.63-3.71-32.17-12.32-43.62-25.81-11.45-13.5-17.18-28.95-17.18-46.38v-5.78c0-13.42,3.5-25.85,10.51-37.27,7.01-11.42,16.5-20.42,28.48-26.99,11.98-6.57,25.05-9.85,39.21-9.85Z"/>
      </g>
    </g>
  </g>
</svg>