<?xml version="1.0" encoding="UTF-8"?>
<svg id="Capa_2" data-name="Capa 2" xmlns="http://www.w3.org/2000/svg" viewBox="0 0 305.3 139.87">
  <defs>
    <style>
      .cls-1 {
        stroke-width: .5px;
      }

      .cls-1, .cls-2 {
        fill: none;
        stroke: #1d1d1b;
        stroke-miterlimit: 10;
      }
    </style>
  </defs>
  <g id="Capa_1-2" data-name="Capa 1">
    <g>
      <path class="cls-2" d="m.13,43.18c14.59,3.86,20.07-20.57,32.97-24.48,12.58-3.81,21.26,6.36,35.14,1.4,16.23-5.81,24.45-10.16,41.52-5.25,13.51,3.89,14.36,4.35,27.03-2.8,8.32-4.7,11.11-9.59,21.05-6.87,20.67,5.66,28.08,13.83,51.34,8.71,11.1-2.44,25.73-14.33,36.04-12.34,21.66,4.17,32.46,34.16,55.03,40.11"/>
      <path class="cls-2" d="m5.94,88.58c22.05,3.54,50.15-10.15,68.76-22.14,22.25-14.34,34.42-16.88,58.08-4.37,25.59,13.53,48.16-.19,75.8,1.94,33.95,2.62,57.98,29.32,93.52,25.61"/>
      <path class="cls-2" d="m7.25,134.01c27.03-1.32,47.62-25.01,74.38-29.32,29.87-4.81,44.96,23.8,72.96,21.33,10.57-.93,19.67-7.4,29.91-9.65,12.86-2.83,24.32.47,37.02,1.59,30.38,2.67,54.31-5.29,76.21,21.33"/>
      <path class="cls-1" d="m1.13,52.77c12.87,4.49,21.44-15.24,33.18-18.69,12.25-3.6,20.35,3.5,34.05-4.85,12.15-7.4,19.96-11.39,34.38-8.64,14.18,2.71,18.08,4.43,32.51-.28,13.66-4.46,18.41-4.21,32.39-.08,13.75,4.07,23.99,1.13,37.58-2.31,10.95-2.77,27.18-7.83,38.7-4.38,22.09,6.61,31.16,33.39,54.54,39.17"/>
      <path class="cls-1" d="m3.68,63.42c11.5,4.81,21.6-10.49,31.93-13.82,12.67-4.08,19.4,1.12,32.16-9.23,21.19-17.18,42.19-7.61,67.76-10.3,13.16-1.38,23.58.77,36.52,1.8,13.32,1.06,21.76-5.81,33.89-9.36,12.72-3.72,28-.81,39.4,5.61,17.66,9.95,30.4,36.4,52.13,37.38"/>
      <path class="cls-1" d="m4.68,72.15c14.36,6.87,24.77-7.77,36.92-12.51,11.24-4.39,20.47-3.2,31.39-10.87,21.41-15.04,41.65-8.99,66.42-5.63,26.18,3.55,48.13-5.6,73.66-5.87,33.26-.35,57.68,41.65,90.28,35.91"/>
      <path class="cls-1" d="m4.7,81.13c18.95,4.26,23.95-3.52,40.29-11.01,10.1-4.63,20.75-7.45,30.85-12.39,24.24-11.85,39.19-10.88,65.05-1.9,26.73,9.28,46.87-9.83,74.68-3.77,32.15,7.01,48.95,41.75,87.17,31.21"/>
      <path class="cls-1" d="m7.23,96.24c23.04,2.29,51.04-6.87,68.73-21.93,18.59-15.82,27.11-21.63,48.62-5.62,25.89,19.27,50.92,8.37,81.36,8.46,34.82.1,65.18,21.05,99.35,19.77"/>
      <path class="cls-1" d="m7.25,105.65c23.89,3.14,46.46-14.01,67.33-22.67,21.69-9,37.52-7.52,59.42,1.31,26.39,10.63,49.58,3.24,77.37,2.7,13.97-.27,28.73-.46,42.3,2.76,15.22,3.61,26.71,11.29,42.71,12.08"/>
      <path class="cls-1" d="m7.25,115.11c26-1.39,45.38-18.05,70.08-24.3,24.53-6.21,48.19,7.15,72.25,10.12,22.15,2.73,45.35-2.14,67.44-4.43,11.31-1.17,23-5.36,33.83-3.67,15.02,2.33,26.12,14.83,41.6,17.9"/>
      <path class="cls-1" d="m7.25,124.56c27.25-2.81,47.83-22.32,74.56-26.74,27.03-4.47,45.74,15.77,71.85,15.83,21.3.05,42.21-6.29,63.88-6.4,11.15-.06,22.29-2.45,33.23-2.53,17.38-.12,33.42,11.93,47.51,20.56"/>
    </g>
  </g>
</svg>