<?xml version="1.0" ?><!DOCTYPE svg  PUBLIC '-//W3C//DTD SVG 1.1//EN'  'http://www.w3.org/Graphics/SVG/1.1/DTD/svg11.dtd'><svg height="100%" style="fill-rule:evenodd;clip-rule:evenodd;stroke-linecap:round;stroke-linejoin:round;stroke-miterlimit:1.5;" version="1.1" viewBox="0 0 512 512" width="100%" xml:space="preserve" xmlns="http://www.w3.org/2000/svg" xmlns:serif="http://www.serif.com/" xmlns:xlink="http://www.w3.org/1999/xlink"><g transform="matrix(1,0,0,1,2.19101,2.27811)"><g transform="matrix(0.937344,0,0,0.945207,32.9295,20.3046)"><path d="M406.788,74.751L328.897,136.651C306.277,122.783 279.624,114.777 251.1,114.777C169.28,114.777 102.853,180.652 102.853,261.791C102.853,342.93 169.28,408.804 251.1,408.804C314.83,408.804 369.221,368.839 390.157,312.824L256.779,312.824L224.01,279.27L459.207,183.248L491.913,216.802L491.975,216.802C494.837,231.657 496.336,246.99 496.336,262.667C496.336,396.966 386.387,506 250.961,506C115.536,506 5.587,396.966 5.587,262.667C5.587,128.368 115.536,19.334 250.961,19.334C287.183,19.334 374.019,41.198 374.019,41.198L406.788,74.751Z" style="fill:white;stroke:black;stroke-width:10.84px;"/></g><g transform="matrix(3.50428,0,0,3.50428,-520.623,192.473)"><path d="M169.204,58.251L177.855,67.166" style="fill:none;stroke:black;stroke-width:2.92px;stroke-linejoin:miter;stroke-miterlimit:5;"/></g><g transform="matrix(3.50428,0,0,3.50428,-282.672,-87.5179)"><path d="M169.204,58.251L177.855,67.166" style="fill:none;stroke:black;stroke-width:2.92px;stroke-linejoin:miter;stroke-miterlimit:5;"/></g><g transform="matrix(3.50428,0,0,3.50428,-258.672,-105.518)"><path d="M169.204,58.251L177.855,67.166" style="fill:none;stroke:black;stroke-width:2.92px;stroke-linejoin:miter;stroke-miterlimit:5;"/></g><g transform="matrix(3.50428,0,0,3.50428,-233.672,-124.518)"><path d="M169.204,58.251L177.855,67.166" style="fill:none;stroke:black;stroke-width:2.92px;stroke-linejoin:miter;stroke-miterlimit:5;"/></g><g transform="matrix(3.50428,0,0,3.50428,-326.672,-103.518)"><path d="M169.204,58.251L177.855,67.166" style="fill:none;stroke:black;stroke-width:2.92px;stroke-linejoin:miter;stroke-miterlimit:5;"/></g><g transform="matrix(3.50428,0,0,3.50428,-365.672,-107.518)"><path d="M169.204,58.251L177.855,67.166" style="fill:none;stroke:black;stroke-width:2.92px;stroke-linejoin:miter;stroke-miterlimit:5;"/></g><g transform="matrix(3.50428,0,0,3.50428,-395.672,-101.518)"><path d="M169.204,58.251L177.855,67.166" style="fill:none;stroke:black;stroke-width:2.92px;stroke-linejoin:miter;stroke-miterlimit:5;"/></g><g transform="matrix(3.50428,0,0,3.50428,-421.672,-89.5179)"><path d="M169.204,58.251L177.855,67.166" style="fill:none;stroke:black;stroke-width:2.92px;stroke-linejoin:miter;stroke-miterlimit:5;"/></g><g transform="matrix(3.50428,0,0,3.50428,-444.672,-75.5179)"><path d="M169.204,58.251L177.855,67.166" style="fill:none;stroke:black;stroke-width:2.92px;stroke-linejoin:miter;stroke-miterlimit:5;"/></g><g transform="matrix(3.50428,0,0,3.50428,-464.672,-54.5179)"><path d="M169.204,58.251L177.855,67.166" style="fill:none;stroke:black;stroke-width:2.92px;stroke-linejoin:miter;stroke-miterlimit:5;"/></g><g transform="matrix(3.50428,0,0,3.50428,-478.672,-31.5179)"><path d="M169.204,58.251L177.855,67.166" style="fill:none;stroke:black;stroke-width:2.92px;stroke-linejoin:miter;stroke-miterlimit:5;"/></g><g transform="matrix(3.50428,0,0,3.50428,-489.672,-4.5179)"><path d="M169.204,58.251L177.855,67.166" style="fill:none;stroke:black;stroke-width:2.92px;stroke-linejoin:miter;stroke-miterlimit:5;"/></g><g transform="matrix(3.50428,0,0,3.50428,-493.672,26.4821)"><path d="M169.204,58.251L177.855,67.166" style="fill:none;stroke:black;stroke-width:2.92px;stroke-linejoin:miter;stroke-miterlimit:5;"/></g><g transform="matrix(3.50428,0,0,3.50428,-491.672,60.4821)"><path d="M169.204,58.251L177.855,67.166" style="fill:none;stroke:black;stroke-width:2.92px;stroke-linejoin:miter;stroke-miterlimit:5;"/></g><g transform="matrix(3.50428,0,0,3.50428,-315.672,80.4821)"><path d="M169.204,58.251L177.855,67.166" style="fill:none;stroke:black;stroke-width:2.92px;stroke-linejoin:miter;stroke-miterlimit:5;"/></g><g transform="matrix(3.50428,0,0,3.50428,-275.672,80.4821)"><path d="M169.204,58.251L177.855,67.166" style="fill:none;stroke:black;stroke-width:2.92px;stroke-linejoin:miter;stroke-miterlimit:5;"/></g><g transform="matrix(3.50428,0,0,3.50428,-125.672,29.2119)"><path d="M169.204,58.251L177.855,67.166" style="fill:none;stroke:black;stroke-width:2.92px;stroke-linejoin:miter;stroke-miterlimit:5;"/></g><g transform="matrix(3.50428,0,0,3.50428,-127.672,67.4821)"><path d="M169.204,58.251L177.855,67.166" style="fill:none;stroke:black;stroke-width:2.92px;stroke-linejoin:miter;stroke-miterlimit:5;"/></g><g transform="matrix(3.50428,0,0,3.50428,-135.672,99.4821)"><path d="M169.204,58.251L177.855,67.166" style="fill:none;stroke:black;stroke-width:2.92px;stroke-linejoin:miter;stroke-miterlimit:5;"/></g><g transform="matrix(3.50428,0,0,3.50428,-145.672,128.482)"><path d="M169.204,58.251L177.855,67.166" style="fill:none;stroke:black;stroke-width:2.92px;stroke-linejoin:miter;stroke-miterlimit:5;"/></g><g transform="matrix(3.50428,0,0,3.50428,-159.672,153.482)"><path d="M169.204,58.251L177.855,67.166" style="fill:none;stroke:black;stroke-width:2.92px;stroke-linejoin:miter;stroke-miterlimit:5;"/></g><g transform="matrix(3.50428,0,0,3.50428,-177.672,178.482)"><path d="M169.204,58.251L177.855,67.166" style="fill:none;stroke:black;stroke-width:2.92px;stroke-linejoin:miter;stroke-miterlimit:5;"/></g><g transform="matrix(3.50428,0,0,3.50428,-177.672,178.482)"><path d="M169.204,58.251L177.855,67.166" style="fill:none;stroke:black;stroke-width:2.92px;stroke-linejoin:miter;stroke-miterlimit:5;"/></g><g transform="matrix(3.50428,0,0,3.50428,-197.672,200.482)"><path d="M169.204,58.251L177.855,67.166" style="fill:none;stroke:black;stroke-width:2.92px;stroke-linejoin:miter;stroke-miterlimit:5;"/></g><g transform="matrix(3.50428,0,0,3.50428,-220.672,219.482)"><path d="M169.204,58.251L177.855,67.166" style="fill:none;stroke:black;stroke-width:2.92px;stroke-linejoin:miter;stroke-miterlimit:5;"/></g><g transform="matrix(3.50428,0,0,3.50428,-246.672,235.482)"><path d="M169.204,58.251L177.855,67.166" style="fill:none;stroke:black;stroke-width:2.92px;stroke-linejoin:miter;stroke-miterlimit:5;"/></g><g transform="matrix(3.50428,0,0,3.50428,-275.672,247.482)"><path d="M169.204,58.251L177.855,67.166" style="fill:none;stroke:black;stroke-width:2.92px;stroke-linejoin:miter;stroke-miterlimit:5;"/></g><g transform="matrix(3.50428,0,0,3.50428,-307.672,254.482)"><path d="M169.204,58.251L177.855,67.166" style="fill:none;stroke:black;stroke-width:2.92px;stroke-linejoin:miter;stroke-miterlimit:5;"/></g><g transform="matrix(3.50428,0,0,3.50428,-339.672,259.482)"><path d="M169.204,58.251L177.855,67.166" style="fill:none;stroke:black;stroke-width:2.92px;stroke-linejoin:miter;stroke-miterlimit:5;"/></g><g transform="matrix(3.50428,0,0,3.50428,-375.672,260.482)"><path d="M169.204,58.251L177.855,67.166" style="fill:none;stroke:black;stroke-width:2.92px;stroke-linejoin:miter;stroke-miterlimit:5;"/></g><g transform="matrix(3.50428,0,0,3.50428,-412.672,253.482)"><path d="M169.204,58.251L177.855,67.166" style="fill:none;stroke:black;stroke-width:2.92px;stroke-linejoin:miter;stroke-miterlimit:5;"/></g><g transform="matrix(3.50428,0,0,3.50428,-452.672,239.482)"><path d="M169.204,58.251L177.855,67.166" style="fill:none;stroke:black;stroke-width:2.92px;stroke-linejoin:miter;stroke-miterlimit:5;"/></g><g transform="matrix(0.937344,0,0,0.945207,2.2144,-11.4106)"><path d="M406.788,74.751L328.897,136.651C306.277,122.783 279.624,114.777 251.1,114.777C169.28,114.777 102.853,180.652 102.853,261.791C102.853,342.93 169.28,408.804 251.1,408.804C314.83,408.804 369.221,368.839 390.157,312.824L256.779,312.824L256.779,216.802L491.975,216.802C494.837,231.657 496.336,246.99 496.336,262.667C496.336,396.966 386.387,506 250.961,506C115.536,506 5.587,396.966 5.587,262.667C5.587,128.368 115.536,19.334 250.961,19.334C310.109,19.334 364.397,40.133 406.788,74.751Z" style="fill:white;stroke:black;stroke-width:10.84px;"/></g></g></svg>